<svg xmlns="http://www.w3.org/2000/svg" width="866.063" height="303" viewBox="0 0 866.063 303">
  <defs>
    <style>
      .cls-1 {
        fill-rule: evenodd;
      }
    </style>
  </defs>
  <path class="cls-1" d="M506,10c7.192,7.379,3.987,41.122,4,54q1,68.993,2,138c0,15.177,6.716,58.781-12,52l-3-2q1.5-78.492,3-157C504.556,64.944,498.805,36.447,506,10Zm75,66c17.259-.931,32.364,14.2,21,30-6.519,9.065-20.476,6.945-30,3-5.357-9.052-9.286-22.444,2-29ZM820,99h26v34h25v23H846q-0.5,48.5-1,97l-25-1V156H801V133h19V99ZM108,133h25q-0.5,59.994-1,120H108q-0.5-11-1-22l-3,2C82.142,282.961-5.79,246.217,6,184c11.6-61.233,63.057-67.324,101-29h1V133Zm302,0h25V253H410q-0.5-11-1-22l-3,2c-4.913,16.242-35.216,29.292-58,21-21.888-7.966-45.092-35-39-70,5.534-31.8,36.032-69.849,78-50,9.738,4.606,15.4,14.248,23,21V133ZM671,309H646V133h25v22c7.855-6.949,14.526-17.96,25-22,44.024-16.983,85.461,23.536,77,69-5.906,31.734-36.811,67.887-76,49-10.972-5.288-20.444-9.627-25-21h-1v79ZM167,133c9.26-.276,21.84-0.921,28,2q16,34,32,68h1v-2l34-68h26L228,258h-1v-2Zm406,0h25V253l-25-1V133Zm128,20c-14.969,6.322-26.359,10.227-32,27-10.032,29.827,16.663,58.674,44,53C758.672,223.52,757.318,151,701,153ZM65,155c-13.032,6.2-26.37,11.923-31,26-9.433,28.683,15.9,58.428,45,52C123.814,223.1,119.623,153.075,65,155Zm302,0c-9.563,4.763-20.461,8.42-26,17-17.069,26.44,4.694,68.5,40,61C426.713,223.29,423.776,152.989,367,155ZM497,259l15,1c16,13.061,8.859,40.238-1,53l-2-1C501.686,294.424,483.446,281.464,497,259Z" transform="translate(-4.938 -10)"/>
</svg>
